<svg viewBox="0 0 260 180" fill="none" xmlns="http://www.w3.org/2000/svg">
<path d="M193.041 152.252L32.0941 97.3692C29.6814 96.5465 29.3292 93.28 31.5112 91.9619L89.9663 56.6503C90.6549 56.2343 91.4818 56.1123 92.2612 56.3118L230.917 91.7907C232.915 92.302 233.813 94.6306 232.676 96.3513L196.512 151.067C195.76 152.206 194.333 152.693 193.041 152.252Z" fill="var(--color-contrast-medium)"/>
<path d="M91.6142 39.6089L31.9477 74.0008C29.6801 75.3078 30.0566 78.6888 32.5561 79.465L193.202 129.352C194.445 129.738 195.796 129.278 196.545 128.213L231.496 78.5295C232.705 76.811 231.818 74.4143 229.782 73.8961L93.8523 39.3007C93.0946 39.1079 92.2916 39.2185 91.6142 39.6089Z" fill="var(--color-contrast-low)"/>
<path d="M89.272 27.4755L32.8191 56.0145C30.3856 57.2447 30.7225 60.8208 33.3429 61.5749L192.72 107.438C193.899 107.777 195.167 107.364 195.92 106.393L231.063 61.0839C232.421 59.3338 231.479 56.7664 229.311 56.3097L91.2441 27.2173C90.5765 27.0767 89.8809 27.1677 89.272 27.4755Z" fill="var(--color-contrast-lower)"/>
</svg>
